<svg width="174" height="185" viewBox="0 0 174 185" fill="none" xmlns="http://www.w3.org/2000/svg">
<g clip-path="url(#clip0_33_2128)">
<path d="M126.125 91.7342C126.125 110.709 110.743 126.091 91.7678 126.091C72.7928 126.091 57.4106 110.709 57.4106 91.7342C57.4106 72.7593 72.7928 57.377 91.7678 57.377C110.743 57.377 126.125 72.7593 126.125 91.7342Z" fill="#F27F93"/>
<path d="M173.16 148.148C154.241 172.519 128.267 184.704 95.2382 184.704C67.3402 184.704 44.4926 175.886 26.6956 158.249C8.89852 140.613 0 118.326 0 91.3902C0 74.7155 4.08851 59.3235 12.2655 45.2141C20.6029 31.1047 32.0667 20.0417 46.6571 12.025C61.2475 4.00834 76.9602 0 93.7952 0C110.791 0 125.942 3.28684 139.25 9.86052C152.718 16.2739 163.941 25.7336 172.92 38.2396L157.047 50.5051C140.372 30.3031 119.769 20.2021 95.2382 20.2021C75.1965 20.2021 57.8805 27.2567 43.2901 41.3661C28.8601 55.4755 21.6451 72.7915 21.6451 93.3142C21.6451 113.677 28.6997 130.752 42.8091 144.541C57.0788 158.169 75.5172 164.983 98.1242 164.983C120.731 164.983 140.372 155.283 157.047 135.883L173.16 148.148Z" fill="white"/>
</g>
<defs>
<clipPath id="clip0_33_2128">
<rect width="174" height="185" fill="white"/>
</clipPath>
</defs>
</svg>
